<svg width="22" height="16" viewBox="0 0 22 16" fill="none" xmlns="http://www.w3.org/2000/svg">
<path d="M5.5 15.96C3.98 15.96 2.68333 15.4367 1.61 14.39C0.536667 13.3367 0 12.0533 0 10.54C0 9.23999 0.39 8.07999 1.17 7.05999C1.95667 6.03999 2.98333 5.38999 4.25 5.10999C4.63667 3.76333 5.35 2.62999 6.39 1.70999C7.43 0.79666 8.63333 0.239993 10 0.0399933V8.10999L8.4 6.55999L7 7.95999L11 11.96L15 7.95999L13.6 6.55999L12 8.10999V0.0399933C13.72 0.273327 15.15 1.04333 16.29 2.34999C17.43 3.65666 18 5.19333 18 6.95999C19.1533 7.09333 20.1067 7.59333 20.86 8.45999C21.62 9.31333 22 10.3133 22 11.46C22 12.7133 21.5633 13.7767 20.69 14.65C19.8167 15.5233 18.7533 15.96 17.5 15.96H5.5Z" fill="#344767"/>
</svg>
